<svg width="89" height="56" viewBox="0 0 89 56" fill="none" xmlns="http://www.w3.org/2000/svg">
<g clip-path="url(#clip0_224_117)">
<path d="M5.82927 50.884C5.70421 50.884 5.5931 50.8041 5.55317 50.6856L0.0154828 34.2527C-0.0481541 34.0638 0.0923156 33.8683 0.291592 33.8683H2.35578C2.48154 33.8683 2.5931 33.949 2.63248 34.0684L7.46497 48.7225C7.51503 48.8742 7.35605 49.0104 7.21378 48.9377C7.04651 48.8522 7.1073 48.5997 7.29516 48.5997H8.41589C8.61619 48.5997 8.67682 48.8716 8.49552 48.9567C8.34856 49.0257 8.18938 48.8879 8.23656 48.7326L12.6898 34.0749C12.7271 33.9522 12.8403 33.8683 12.9686 33.8683H14.9665C15.1632 33.8683 15.3033 34.0592 15.2445 34.2469L10.0895 50.6798C10.0514 50.8013 9.93878 50.884 9.81147 50.884H5.82927Z" fill="white"/>
<path d="M18.4095 50.884C18.2486 50.884 18.1182 50.7535 18.1182 50.5926V38.6583C18.1182 38.4974 18.2486 38.3669 18.4095 38.3669H20.6822V50.5926C20.6822 50.7535 20.5517 50.884 20.3908 50.884H18.4095ZM16.5448 40.3482C16.3839 40.3482 16.2534 40.2178 16.2534 40.0568V38.6583C16.2534 38.4974 16.3839 38.3669 16.5448 38.3669H20.6822V40.0568C20.6822 40.2178 20.5517 40.3482 20.3908 40.3482H16.5448ZM18.9107 36.5255C18.3823 36.5255 17.9861 36.3857 17.7219 36.1059C17.4577 35.8107 17.3256 35.4455 17.3256 35.0104C17.3256 34.5753 17.4577 34.2179 17.7219 33.9382C17.9861 33.643 18.3823 33.4953 18.9107 33.4953C19.4546 33.4953 19.8586 33.643 20.1227 33.9382C20.3869 34.2179 20.519 34.5753 20.519 35.0104C20.519 35.4455 20.3869 35.8107 20.1227 36.1059C19.8586 36.3857 19.4546 36.5255 18.9107 36.5255Z" fill="white"/>
<path d="M29.3871 55.7789C28.7967 55.7789 28.1983 55.7556 27.5922 55.709C27.0937 55.6696 26.6174 55.6192 26.1632 55.5576C26.02 55.5383 25.9141 55.4154 25.9141 55.2708V53.7036C25.9141 53.5299 26.065 53.3949 26.2377 53.4128C26.6999 53.4607 27.1827 53.5035 27.6856 53.5412C28.3071 53.6034 28.8899 53.6344 29.4337 53.6344C30.5372 53.6344 31.4227 53.4946 32.091 53.2149C32.7591 52.9351 33.2409 52.4845 33.5361 51.8629C33.8469 51.2569 34.0024 50.4799 34.0024 49.532V47.1672C34.0024 47.128 34.0102 47.0893 34.0254 47.0533L34.1055 46.8651C34.2319 46.5672 34.5995 46.6612 34.5276 46.9766C34.398 47.5432 34.2075 48.0532 33.9558 48.5064C33.4895 49.33 32.8758 49.9516 32.1143 50.3712C31.3528 50.7752 30.4982 50.9772 29.5504 50.9772C28.68 50.9772 27.8876 50.814 27.1727 50.4877C26.4581 50.1458 25.8441 49.6874 25.3313 49.1125C24.8185 48.522 24.4145 47.846 24.1193 47.0846C23.8396 46.3076 23.6997 45.484 23.6997 44.6138V44.1709C23.6997 43.3007 23.8473 42.4849 24.1426 41.7235C24.4378 40.962 24.8496 40.3016 25.378 39.7422C25.9063 39.1828 26.5355 38.7477 27.2659 38.4369C27.9962 38.1105 28.8043 37.9474 29.6901 37.9474C30.7313 37.9474 31.6404 38.1727 32.4174 38.6233C33.2097 39.074 33.8315 39.7266 34.2821 40.5813C34.6979 41.3558 34.9418 42.2959 35.0135 43.4014C35.0237 43.5576 34.9047 43.6909 34.7484 43.7029L34.7356 43.7039C34.5663 43.7169 34.4218 43.5831 34.4218 43.4134V38.6583C34.4218 38.4974 34.5524 38.3669 34.7134 38.3669H36.1584C36.3193 38.3669 36.4499 38.4974 36.4499 38.6583V49.4155C36.4499 50.9228 36.2089 52.1426 35.7271 53.075C35.2456 54.0074 34.4841 54.6911 33.4429 55.1262C32.4174 55.5613 31.0655 55.7789 29.3871 55.7789ZM30.1331 48.6929C30.8478 48.6929 31.4928 48.5375 32.0678 48.2267C32.6581 47.9159 33.1244 47.4653 33.4662 46.8748C33.8082 46.2843 33.9791 45.585 33.9791 44.7769V43.7747C33.9791 42.9821 33.8004 42.314 33.4429 41.7701C33.0854 41.2107 32.6194 40.7911 32.0445 40.5114C31.4693 40.2317 30.8399 40.0918 30.1564 40.0918C29.3949 40.0918 28.719 40.2705 28.1284 40.6279C27.538 40.9853 27.0796 41.4826 26.7533 42.1197C26.4269 42.7568 26.2636 43.5183 26.2636 44.404C26.2636 45.2742 26.4269 46.0357 26.7533 46.6883C27.095 47.3254 27.5535 47.8227 28.1284 48.1801C28.719 48.522 29.3871 48.6929 30.1331 48.6929Z" fill="white"/>
<path d="M41.0476 50.884C40.8867 50.884 40.7564 50.7535 40.7564 50.5926V38.6583C40.7564 38.4974 40.8867 38.3669 41.0476 38.3669H43.3203V50.5926C43.3203 50.7535 43.19 50.884 43.0291 50.884H41.0476ZM39.1829 40.3482C39.0219 40.3482 38.8916 40.2178 38.8916 40.0568V38.6583C38.8916 38.4974 39.0219 38.3669 39.1829 38.3669H43.3203V40.0568C43.3203 40.2178 43.19 40.3482 43.0291 40.3482H39.1829ZM41.5487 36.5255C41.0204 36.5255 40.6242 36.3857 40.3602 36.1059C40.0959 35.8107 39.9637 35.4455 39.9637 35.0104C39.9637 34.5753 40.0959 34.2179 40.3602 33.9382C40.6242 33.643 41.0204 33.4953 41.5487 33.4953C42.0928 33.4953 42.4968 33.643 42.7608 33.9382C43.0251 34.2179 43.1573 34.5753 43.1573 35.0104C43.1573 35.4455 43.0251 35.8107 42.7608 36.1059C42.4968 36.3857 42.0928 36.5255 41.5487 36.5255Z" fill="white"/>
<path d="M47.6782 50.884C47.5172 50.884 47.3867 50.7535 47.3867 50.5926V34.1596C47.3867 33.9987 47.5172 33.8683 47.6782 33.8683H49.9506V50.5926C49.9506 50.7535 49.8203 50.884 49.6594 50.884H47.6782ZM45.9998 35.8496C45.8388 35.8496 45.7085 35.7191 45.7085 35.5582V34.1596C45.7085 33.9987 45.8388 33.8683 45.9998 33.8683H49.9506V35.5582C49.9506 35.7191 49.8203 35.8496 49.6594 35.8496H45.9998Z" fill="white"/>
<path d="M61.6868 50.884C61.5258 50.884 61.3953 50.7535 61.3953 50.5926V47.3759C61.3953 47.2536 61.2961 47.1545 61.1739 47.1545C61.0517 47.1545 60.9525 47.0554 60.9525 46.933V42.8889C60.9525 42.0653 60.7426 41.4515 60.3231 41.0475C59.9191 40.6279 59.3052 40.4182 58.4817 40.4182C58.0311 40.4182 57.5415 40.4259 57.0131 40.4414C56.5005 40.457 55.9954 40.4803 55.498 40.5114C55.135 40.5227 54.8053 40.5382 54.5086 40.5578C54.3385 40.5691 54.1927 40.4351 54.1927 40.2647V38.6341C54.1927 38.4829 54.3084 38.3567 54.4591 38.3456C54.7378 38.3249 55.0296 38.3088 55.335 38.297C55.739 38.2659 56.1509 38.2426 56.5704 38.2271C57.0055 38.2115 57.4172 38.2038 57.8058 38.2038C59.0799 38.2038 60.129 38.3669 60.9525 38.6933C61.7914 39.0041 62.4132 39.5091 62.8172 40.2084C63.2213 40.9076 63.4233 41.84 63.4233 43.0055V50.5926C63.4233 50.7535 63.2927 50.884 63.1318 50.884H61.6868ZM57.3162 51.2103C56.3838 51.2103 55.5757 51.0549 54.8922 50.7441C54.2084 50.4178 53.6801 49.9516 53.3069 49.3455C52.9497 48.7395 52.771 48.0092 52.771 47.1545C52.771 46.2532 52.973 45.5073 53.3771 44.9168C53.7965 44.3263 54.3947 43.8834 55.1717 43.5882C55.9643 43.2774 56.9045 43.122 57.9921 43.122H60.9407C61.1017 43.122 61.2322 43.2525 61.2322 43.4134V44.6021C61.2322 44.763 61.1017 44.8935 60.9407 44.8935H57.9222C57.0676 44.8935 56.4149 45.1033 55.9643 45.5228C55.5137 45.9269 55.2884 46.4552 55.2884 47.1079C55.2884 47.745 55.5137 48.2656 55.9643 48.6696C56.4149 49.0736 57.0676 49.2756 57.9222 49.2756C58.4194 49.2756 58.8936 49.1824 59.3442 48.9959C59.7948 48.8094 60.1677 48.4986 60.4629 48.0635C60.6474 47.7917 60.7803 47.4532 60.8617 47.0479C60.9153 46.7803 61.2772 46.6711 61.4429 46.8881L61.5599 47.0414C61.6041 47.0992 61.625 47.1714 61.6177 47.2437C61.5319 48.0802 61.3178 48.7886 60.9758 49.3689C60.6338 49.9749 60.1523 50.4333 59.5305 50.7441C58.9245 51.0549 58.1865 51.2103 57.3162 51.2103Z" fill="white"/>
<path d="M67.3765 50.884C67.2155 50.884 67.085 50.7535 67.085 50.5926V38.6583C67.085 38.4974 67.2155 38.3669 67.3765 38.3669H68.8215C68.9824 38.3669 69.113 38.4974 69.113 38.6583V43.5882C69.113 43.6654 69.0505 43.728 68.973 43.728C68.8958 43.728 68.8333 43.6653 68.834 43.5881C68.8463 42.4065 69.017 41.4121 69.3462 40.6046C69.6879 39.7499 70.193 39.1051 70.861 38.67C71.5448 38.2193 72.4073 37.994 73.4485 37.994H73.5417C75.0956 37.994 76.2533 38.4835 77.0148 39.4625C77.7762 40.4414 78.157 41.8633 78.157 43.728V50.5926C78.157 50.7535 78.0264 50.884 77.8655 50.884H75.8843C75.7233 50.884 75.5928 50.7535 75.5928 50.5926V43.3318C75.5928 42.4305 75.3366 41.7079 74.8237 41.164C74.3108 40.6046 73.6116 40.3249 72.7258 40.3249C71.8091 40.3249 71.0631 40.6124 70.4881 41.1873C69.9287 41.7468 69.6492 42.5004 69.6492 43.4483V50.5926C69.6492 50.7535 69.5186 50.884 69.3577 50.884H67.3765Z" fill="white"/>
<path d="M86.8882 51.0238C85.8781 51.0238 85.0235 50.8917 84.3243 50.6276C83.6251 50.3478 83.0889 49.8739 82.716 49.2057C82.3428 48.5375 82.1565 47.6284 82.1565 46.4785L82.1793 34.9516C82.1795 34.7909 82.3098 34.6608 82.4705 34.6608H84.3125C84.4734 34.6608 84.604 34.7912 84.604 34.9521V46.7349C84.604 47.3876 84.7749 47.8926 85.1167 48.25C85.4741 48.6074 85.987 48.7861 86.6551 48.7861H88.4848C88.6457 48.7861 88.7763 48.9166 88.7763 49.0775V50.7324C88.7763 50.8933 88.6457 51.0238 88.4848 51.0238H86.8882ZM80.3501 40.2783C80.1892 40.2783 80.0586 40.1478 80.0586 39.9869V38.6583C80.0586 38.4974 80.1892 38.3669 80.3501 38.3669H88.4848C88.6457 38.3669 88.7763 38.4974 88.7763 38.6583V39.9869C88.7763 40.1478 88.6457 40.2783 88.4848 40.2783H80.3501Z" fill="white"/>
<path d="M40.9825 5.23608C40.9281 5.23608 40.874 5.23733 40.8201 5.23977L44.1851 15.444H45.132L48.2253 5.26227C48.0833 5.24498 47.9391 5.23608 47.7934 5.23608H40.9825Z" fill="#00AA13"/>
<path d="M43.1108 17.9811C42.5552 17.9811 42.0616 17.6266 41.8841 17.1001L38.2979 6.45803C37.9898 6.81171 37.7486 7.22986 37.5972 7.69579L35.4925 14.1733C35.0159 15.64 35.538 17.2467 36.7856 18.1531L42.2957 22.1565C43.5434 23.0629 45.2328 23.0629 46.4804 22.1565L51.9905 18.1531C53.2381 17.2467 53.7602 15.64 53.2837 14.1733L51.179 7.69579C51.0535 7.30947 50.8662 6.95602 50.6302 6.64491L47.3585 17.0741C47.1892 17.6138 46.6891 17.9811 46.1234 17.9811H43.1108Z" fill="#00AA13"/>
<path fill-rule="evenodd" clip-rule="evenodd" d="M42.2957 28.6286C43.5433 29.535 45.2327 29.535 46.4803 28.6286L58.1459 20.1532C59.3934 19.2467 59.9157 17.64 59.439 16.1733L54.9832 2.45969C54.5066 0.993015 53.1399 0 51.5977 0H37.1784C35.6362 0 34.2695 0.993015 33.7929 2.45969L29.3371 16.1733C28.8605 17.64 29.3826 19.2467 30.6302 20.1532L42.2957 28.6286ZM42.2957 25.3926C43.5433 26.299 45.2327 26.299 46.4804 25.3925L55.0682 19.1531C56.3158 18.2467 56.8378 16.64 56.3613 15.1733L53.0811 5.07774C52.6045 3.61108 51.2378 2.61805 49.6956 2.61805H39.0805C37.5383 2.61805 36.1716 3.61108 35.695 5.07774L32.4148 15.1733C31.9382 16.64 32.4603 18.2467 33.7079 19.1531L42.2957 25.3926Z" fill="#00AA13"/>
</g>
<defs>
<clipPath id="clip0_224_117">
<rect width="88.972" height="56" fill="white"/>
</clipPath>
</defs>
</svg>
