<svg width="48" height="48" viewBox="0 0 48 48" fill="none" xmlns="http://www.w3.org/2000/svg">
<path d="M19.3449 10.969C19.2702 10.969 19.1958 10.9707 19.1218 10.9741L23.7434 24.9886H25.0438L29.2922 11.005C29.0972 10.9812 28.8992 10.969 28.699 10.969H19.3449Z" fill="#00AA13"/>
<path d="M22.2678 28.473C21.5047 28.473 20.8268 27.9861 20.583 27.263L15.6578 12.6473C15.2345 13.133 14.9032 13.7073 14.6953 14.3472L11.8048 23.2434C11.1503 25.2577 11.8673 27.4644 13.5808 28.7093L21.1484 34.2075C22.8619 35.4524 25.1821 35.4524 26.8955 34.2075L34.4632 28.7093C36.1767 27.4644 36.8937 25.2577 36.2392 23.2434L33.3486 14.3472C33.1762 13.8166 32.919 13.3312 32.5949 12.9039L28.1016 27.2274C27.8691 27.9686 27.1822 28.473 26.4053 28.473H22.2678Z" fill="#00AA13"/>
<path fill-rule="evenodd" clip-rule="evenodd" d="M26.8955 43.0964C25.1821 44.3413 22.8619 44.3413 21.1483 43.0964L5.12694 31.4561C3.41345 30.2112 2.69643 28.0045 3.35095 25.9902L9.47058 7.15591C10.1251 5.14158 12.0022 3.77777 14.1202 3.77777H33.9237C36.0417 3.77777 37.9188 5.14158 38.5734 7.15591L44.693 25.9902C45.3475 28.0045 44.6305 30.2112 42.917 31.4561L26.8955 43.0964ZM26.8956 38.6519C25.1821 39.8968 22.8619 39.8968 21.1483 38.6519L9.35388 30.0827C7.64039 28.8378 6.92338 26.6311 7.57789 24.6168L12.0829 10.7515C12.7374 8.73721 14.6146 7.3734 16.7326 7.3734H31.3114C33.4294 7.3734 35.3065 8.73721 35.961 10.7515L40.466 24.6168C41.1206 26.6311 40.4035 28.8378 38.6901 30.0827L26.8956 38.6519Z" fill="#00AA13"/>
</svg>
